<?xml version="1.0" standalone="no"?>
<!DOCTYPE svg PUBLIC "-//W3C//DTD SVG 20010904//EN"
 "http://www.w3.org/TR/2001/REC-SVG-20010904/DTD/svg10.dtd">
<svg version="1.0" xmlns="http://www.w3.org/2000/svg"
 width="400.000000pt" height="400.000000pt" viewBox="0 0 400.000000 400.000000"
 preserveAspectRatio="xMidYMid meet">
<metadata>
Created by potrace 1.14, written by Peter Selinger 2001-2017
</metadata>
<g transform="translate(0.000000,400.000000) scale(0.100000,-0.100000)"
fill="#000000" stroke="none">
<path d="M1919 3848 c-14 -55 -18 -61 -32 -50 -7 5 -20 12 -29 15 -15 5 -16 2
-8 -19 13 -34 13 -34 -12 -31 -12 2 -30 -5 -42 -17 -19 -19 -21 -19 -24 -3 -2
10 -13 17 -27 17 -12 0 -25 7 -29 15 -3 8 -13 15 -22 15 -10 0 -14 -5 -10 -15
8 -23 -6 -18 -44 15 -53 45 -60 36 -10 -15 45 -46 46 -63 2 -22 -21 18 -24 19
-19 4 13 -35 -51 -9 -95 39 -50 54 -64 49 -19 -6 28 -35 30 -41 15 -47 -9 -3
-36 4 -60 15 -56 27 -58 13 -2 -18 38 -21 40 -24 23 -36 -20 -15 -57 -10 -94
13 -23 15 -24 14 -17 -10 5 -22 1 -27 -26 -36 -70 -25 -108 -46 -113 -62 -4
-10 -16 -21 -28 -24 -40 -11 -97 -38 -97 -45 0 -5 -11 -11 -25 -14 -16 -4 -22
-11 -19 -21 4 -9 0 -15 -10 -15 -18 0 -20 -8 -7 -29 5 -7 14 -10 20 -7 6 4 9
12 6 17 -4 5 12 8 34 7 23 -1 41 -4 41 -8 0 -10 -47 -30 -70 -30 -10 0 -23 -6
-27 -14 -13 -21 -45 -34 -102 -42 -29 -4 -58 -13 -65 -20 -8 -7 -26 -16 -41
-20 -23 -6 -45 -36 -45 -65 0 -14 26 -11 40 6 13 16 30 20 30 8 0 -5 -24 -33
-53 -63 -28 -30 -51 -58 -50 -62 2 -4 -17 -16 -40 -28 -24 -12 -49 -30 -55
-41 -11 -17 -9 -19 25 -19 21 0 49 -3 62 -7 23 -6 22 -6 -9 -19 -49 -21 -28
-38 37 -30 50 6 53 5 44 -12 -10 -18 -21 -25 -106 -63 -41 -18 -46 -23 -27
-26 12 -3 22 -11 22 -19 0 -8 4 -13 9 -9 25 15 191 40 175 26 -13 -11 -82 -29
-138 -36 -52 -5 -75 -23 -53 -40 8 -5 19 -19 25 -30 6 -11 12 -14 12 -7 0 6 5
12 11 12 6 0 9 -9 6 -20 -3 -11 -1 -20 4 -20 5 0 9 4 9 9 0 5 10 13 22 17 12
3 45 22 75 41 62 39 71 31 13 -13 -42 -31 -56 -52 -42 -66 5 -5 19 2 33 15 23
23 61 47 74 47 4 0 -3 -13 -14 -29 -12 -16 -21 -37 -21 -46 0 -14 4 -13 20 6
10 13 19 19 20 14 0 -6 -4 -15 -9 -20 -5 -6 -12 -26 -16 -45 -7 -33 -7 -34 11
-20 11 8 23 20 27 25 5 6 6 -12 3 -38 -4 -33 -13 -54 -28 -66 -16 -13 -19 -23
-13 -37 8 -18 8 -18 13 1 8 36 22 41 22 7 0 -18 5 -32 10 -32 10 0 14 18 10
59 -1 13 2 21 8 17 6 -3 13 2 16 11 3 10 4 -5 1 -33 -2 -28 0 -67 4 -86 5 -21
4 -43 -2 -53 -9 -16 -21 -153 -19 -222 0 -18 -4 -33 -9 -33 -5 0 -9 -6 -9 -14
0 -8 -5 -18 -11 -21 -6 -4 -10 -1 -8 6 4 36 -2 89 -11 89 -7 0 -9 -14 -5 -37
5 -28 4 -34 -4 -23 -6 8 -11 23 -11 33 0 21 -28 53 -37 43 -3 -3 -7 -29 -7
-56 -1 -32 -7 -54 -15 -59 -8 -5 -11 -16 -8 -26 4 -9 12 -13 19 -9 20 13 67
12 72 -1 2 -7 8 -33 11 -59 4 -25 11 -46 15 -46 4 0 11 -12 14 -26 6 -21 1
-33 -18 -53 -36 -38 -42 -89 -17 -140 19 -36 35 -47 64 -42 4 1 16 -13 26 -30
10 -17 31 -37 46 -45 l27 -14 -4 119 c-2 70 -9 125 -16 133 -27 33 -43 411
-22 504 17 71 40 145 53 173 9 19 9 25 0 28 -10 4 -10 11 1 32 9 16 17 76 21
151 7 138 22 187 63 213 15 9 40 27 56 42 16 14 36 25 45 25 9 0 29 7 46 16
25 13 31 13 40 1 16 -22 162 -23 186 -1 18 16 19 16 19 -5 0 -12 4 -19 10 -16
6 4 8 11 5 16 -4 5 5 9 19 9 13 0 26 -5 28 -12 3 -7 25 -13 54 -13 40 -2 51 2
59 19 7 14 25 23 53 28 50 8 76 0 115 -36 15 -14 34 -26 42 -26 7 0 15 -5 17
-10 2 -6 14 -12 28 -14 14 -2 34 -7 45 -11 23 -8 68 -72 59 -86 -3 -5 4 -9 15
-9 22 0 24 -5 21 -61 -1 -24 4 -38 13 -42 9 -3 15 -19 15 -41 0 -43 8 -57 29
-49 10 4 21 -1 30 -13 11 -16 26 -19 81 -18 37 0 59 -1 50 -3 -10 -3 -18 -13
-18 -24 0 -24 -26 -25 -39 -1 -10 16 -10 16 -11 0 0 -12 -8 -18 -22 -18 -12 0
-18 -3 -15 -7 4 -3 2 -12 -4 -19 -8 -10 -16 -10 -34 -2 -19 8 -27 7 -40 -6
-11 -11 -12 -16 -4 -16 7 0 4 -6 -7 -14 -10 -8 -20 -10 -22 -5 -8 20 -42 8
-48 -16 -7 -30 -52 -56 -82 -48 -12 3 -20 9 -17 13 2 4 -4 15 -15 25 -11 10
-20 24 -20 32 0 18 -39 17 -46 -2 -4 -8 -1 -22 6 -30 10 -12 9 -16 -3 -21 -9
-3 -20 -3 -26 0 -6 4 -8 -7 -4 -29 5 -32 4 -35 -20 -35 -15 0 -32 9 -40 20
-10 15 -29 22 -66 26 -31 3 -51 1 -51 -6 0 -13 -33 -13 -47 1 -7 7 -43 9 -99
5 -49 -2 -130 -6 -180 -8 -89 -3 -92 -4 -145 -45 -102 -79 -133 -120 -122
-163 4 -15 1 -27 -11 -35 -22 -16 -11 -42 25 -61 16 -8 28 -18 27 -22 0 -4 2
-15 6 -24 9 -19 36 -25 36 -8 0 6 -3 10 -8 10 -4 0 -7 21 -7 46 0 39 5 50 29
69 16 13 41 29 55 35 14 7 34 17 44 22 23 12 123 0 136 -16 8 -9 -6 -15 -52
-25 -34 -7 -76 -21 -92 -31 -33 -20 -102 -100 -87 -100 5 0 7 -11 4 -25 -2
-14 -11 -25 -18 -25 -16 0 -18 -28 -4 -50 11 -18 64 -2 66 20 1 8 2 20 3 25 1
13 131 16 131 4 0 -5 11 -7 25 -3 15 4 25 2 25 -4 0 -6 21 -17 48 -25 l47 -14
-45 -13 c-50 -15 -139 -18 -185 -5 -26 7 -28 6 -18 -7 7 -8 10 -18 6 -21 -3
-4 1 -7 11 -7 10 0 19 -11 23 -30 4 -21 11 -30 24 -30 11 0 19 -6 19 -14 0 -9
20 -19 55 -27 34 -7 52 -16 48 -23 -3 -6 0 -6 7 1 11 10 16 9 27 -5 11 -12 16
-14 19 -4 3 6 12 12 20 12 8 0 14 4 14 9 0 5 19 11 43 14 108 13 156 35 157
74 0 7 10 27 23 46 12 18 29 51 36 73 12 36 11 48 -9 110 -12 38 -24 75 -26
82 -3 6 1 12 8 12 8 0 26 13 41 28 22 23 34 27 62 24 32 -4 35 -7 35 -37 0
-22 10 -45 27 -65 21 -25 23 -34 13 -40 -8 -5 -15 -28 -15 -54 -1 -25 -4 -49
-8 -52 -4 -4 -2 -13 4 -20 6 -8 9 -21 5 -29 -3 -8 -1 -15 4 -15 5 0 12 -21 16
-47 3 -27 14 -56 24 -65 11 -11 18 -33 18 -63 1 -25 4 -50 7 -55 4 -6 -1 -10
-9 -10 -22 0 -20 -28 4 -68 25 -41 25 -52 1 -52 -11 0 -22 -9 -26 -19 -3 -11
-12 -22 -20 -25 -8 -3 -15 -16 -15 -28 0 -21 -3 -20 -35 14 -19 20 -35 42 -35
48 0 6 -5 8 -12 4 -7 -4 -8 -3 -4 5 12 18 -16 38 -52 35 -36 -2 -46 24 -12 33
23 6 27 38 7 58 -19 18 -103 30 -111 16 -10 -16 -36 -13 -36 4 0 26 -36 16
-71 -21 -19 -19 -51 -44 -72 -55 -22 -12 -35 -24 -31 -31 4 -6 1 -16 -7 -22
-8 -6 -20 -22 -27 -36 -45 -86 -53 -100 -62 -100 -6 0 -10 -8 -10 -19 0 -10
-11 -30 -25 -45 -14 -15 -25 -31 -25 -36 0 -5 -8 -13 -17 -18 -21 -12 -26 -84
-7 -121 7 -14 16 -33 19 -41 10 -25 31 -59 50 -80 17 -19 17 -21 -11 -57 -18
-23 -24 -38 -16 -41 7 -2 12 -10 12 -18 0 -9 -5 -12 -11 -8 -7 4 -9 0 -5 -14
5 -14 1 -27 -12 -40 -25 -25 -10 -47 21 -31 10 6 28 9 38 6 16 -4 17 -2 8 14
-5 11 -14 17 -19 14 -11 -7 -24 31 -15 45 7 12 36 14 34 3 -3 -20 2 -24 16
-13 11 9 18 10 29 1 7 -6 22 -8 32 -4 18 7 18 6 1 -11 -18 -19 -24 -41 -7 -31
6 3 10 -1 10 -9 0 -21 6 -20 33 4 17 16 19 24 11 38 -9 14 -6 25 12 52 25 36
31 65 14 75 -5 3 -10 19 -10 36 0 40 22 38 62 -7 42 -46 162 -104 216 -104 22
0 43 -4 46 -9 3 -5 22 -12 42 -16 36 -6 37 -7 13 -19 -13 -7 -46 -18 -74 -25
-84 -22 -82 -20 -50 -48 17 -14 29 -29 27 -34 -1 -5 8 -9 21 -9 24 0 53 -35
37 -45 -5 -3 -7 -12 -4 -19 4 -10 -5 -13 -33 -11 -42 2 -96 26 -75 33 6 2 10
8 7 12 -3 5 -13 6 -22 3 -11 -4 -14 -3 -9 5 4 7 1 15 -8 18 -8 3 -18 14 -21
25 -4 10 -9 18 -13 18 -20 -3 -25 2 -12 11 13 8 12 10 -2 10 -10 0 -18 5 -18
10 0 6 -9 10 -20 10 -14 0 -18 5 -13 16 5 14 3 15 -14 6 -15 -8 -19 -18 -15
-41 2 -17 9 -31 15 -31 7 0 7 -4 -1 -12 -17 -17 -15 -25 6 -31 12 -2 22 -18
26 -38 5 -19 10 -28 13 -21 7 18 31 14 45 -8 7 -11 16 -20 20 -20 4 0 21 -13
39 -30 26 -23 35 -26 43 -16 6 7 18 16 27 19 24 8 78 -29 85 -59 6 -25 8 -26
20 -10 8 11 14 13 19 7 3 -6 2 -11 -3 -11 -13 0 -11 -83 2 -92 6 -4 3 -14 -8
-27 -10 -11 -15 -25 -11 -30 3 -6 4 -11 0 -11 -3 0 -11 12 -17 28 l-12 27 -4
-28 c-2 -15 -8 -27 -13 -27 -5 0 -9 -3 -9 -7 0 -12 64 -10 72 2 5 6 8 5 8 -2
0 -15 68 -46 81 -37 5 3 9 1 9 -5 0 -5 14 -9 30 -9 38 1 60 -16 42 -34 -7 -7
-12 -19 -12 -28 0 -26 -74 -41 -124 -26 -23 7 -51 9 -61 5 -11 -4 -30 -5 -41
-2 -14 3 -29 -3 -42 -17 -19 -21 -41 -13 -27 10 3 6 1 10 -4 10 -6 0 -11 -5
-11 -11 0 -29 -194 21 -208 54 -2 4 -9 7 -16 7 -11 0 -25 9 -103 66 -124 91
-212 233 -243 396 -8 39 -21 67 -41 90 -17 18 -37 48 -45 67 -14 30 -18 33
-46 27 -25 -5 -91 -49 -88 -58 1 -2 -2 -11 -6 -21 -5 -14 -9 -15 -14 -6 -5 8
-12 -4 -17 -32 -5 -24 -6 -49 -1 -55 4 -6 5 -14 1 -18 -4 -3 2 -13 13 -21 10
-8 16 -15 12 -15 -6 0 75 -81 208 -206 24 -23 62 -56 84 -74 22 -17 38 -36 34
-41 -3 -5 1 -9 9 -9 8 0 50 -35 94 -78 44 -43 93 -83 108 -90 17 -8 25 -18 21
-27 -4 -10 1 -15 15 -15 16 0 19 -4 14 -22 -6 -16 -4 -20 7 -16 8 3 25 -3 39
-13 22 -17 23 -19 4 -19 -18 -1 -18 -2 3 -11 13 -5 20 -13 17 -19 -3 -6 0 -13
9 -16 9 -3 12 -12 9 -21 -4 -11 -2 -14 5 -9 7 4 12 1 12 -8 0 -9 5 -16 10 -16
6 0 10 7 10 15 0 8 4 15 9 15 5 0 7 -9 4 -20 -4 -14 0 -20 11 -20 9 0 16 -6
17 -12 0 -7 3 -5 7 4 6 15 12 13 44 -18 21 -19 42 -42 48 -52 8 -14 11 -14 19
-3 9 14 51 7 51 -8 0 -5 11 -6 25 -3 18 3 27 -1 32 -14 5 -11 15 -19 23 -19 8
0 28 -24 45 -52 l30 -53 147 0 c144 0 147 0 151 23 l4 22 8 -22 c10 -30 24
-20 17 12 -2 14 3 36 13 52 17 26 19 26 26 8 11 -30 11 -32 -11 -38 -21 -5
-28 -27 -9 -27 5 0 7 4 4 10 -3 5 0 10 9 10 8 0 16 -3 19 -7 2 -5 2 -2 0 5 -2
9 3 11 17 7 17 -5 20 -2 20 20 0 14 -5 36 -11 47 -8 14 -8 23 0 31 8 8 11 8
11 0 0 -7 12 -9 30 -7 17 3 31 2 31 -3 8 -44 5 -72 -8 -77 -9 -4 -12 -13 -8
-26 4 -12 2 -20 -5 -20 -6 0 -9 -4 -6 -9 3 -5 41 -9 83 -9 59 1 81 5 91 17 12
14 13 14 8 -3 -6 -16 -4 -17 9 -6 8 7 15 9 15 5 0 -4 8 -1 17 6 15 12 16 12
10 -3 -3 -10 -2 -18 3 -18 6 0 10 5 10 12 0 9 3 9 12 0 7 -7 23 -12 37 -11
l26 1 -26 7 c-64 20 -86 44 -50 56 21 6 23 33 3 54 -8 8 -11 22 -9 32 5 17 -4
24 -25 20 -4 0 -12 8 -18 19 -8 15 -8 20 2 20 10 1 9 4 -2 13 -8 7 -17 21 -18
32 -9 49 -31 85 -53 85 -19 0 -21 -4 -16 -38 3 -20 3 -31 0 -24 -8 20 -23 14
-23 -9 0 -18 -2 -19 -15 -9 -16 13 -20 3 -7 -18 5 -7 16 -10 25 -6 12 4 17 1
17 -10 0 -9 -8 -16 -19 -16 -14 0 -18 -5 -14 -20 3 -12 -2 -29 -11 -39 -9 -10
-15 -20 -14 -22 2 -2 -3 4 -11 13 -7 10 -19 18 -27 18 -7 0 -20 7 -28 16 -9 8
-16 11 -16 5 0 -17 -17 -13 -24 5 -3 8 -2 12 3 9 12 -7 25 31 16 45 -3 5 0 7
8 4 11 -4 13 1 10 20 -6 30 4 79 15 72 4 -3 14 -1 22 5 12 7 11 9 -4 9 -15 0
-17 3 -9 11 8 8 8 20 3 35 -5 13 -6 24 -2 24 4 0 1 4 -6 8 -7 5 -15 21 -18 36
-4 24 -2 27 15 21 15 -4 23 2 35 26 9 18 14 35 11 37 -3 3 -5 0 -5 -7 0 -7 -4
-9 -10 -6 -5 3 -11 -4 -11 -17 -1 -17 -3 -18 -6 -5 -2 9 -9 17 -14 17 -5 0 -9
7 -9 15 0 8 7 15 15 15 18 0 18 5 5 30 -8 16 -8 18 5 14 8 -4 15 -10 15 -15 0
-5 10 -9 23 -8 12 0 16 3 10 6 -7 2 -13 16 -13 29 0 13 -6 24 -13 24 -7 0 -14
9 -15 20 -1 11 -3 29 -4 40 -1 11 -7 20 -12 20 -5 0 -7 2 -4 6 3 3 2 21 -2 40
-5 23 -4 34 4 34 6 1 4 6 -4 13 -15 11 -23 42 -20 77 0 8 1 26 1 40 0 14 8 34
18 45 26 30 111 163 111 174 0 5 4 11 10 13 22 7 89 198 98 280 11 98 7 195
-9 214 -7 8 -7 14 -2 14 6 0 8 12 5 28 l-6 27 -7 -25 c-6 -22 -7 -22 -8 -4 -1
21 -31 30 -31 10 -1 -6 -7 4 -15 23 -21 46 -18 61 5 31 14 -18 20 -21 20 -9 0
8 -11 26 -26 39 -18 18 -23 31 -19 48 4 18 1 25 -14 29 -32 8 -37 43 -10 64
21 16 22 21 12 38 -17 27 2 39 26 17 10 -9 22 -16 28 -16 6 0 14 -19 17 -42
11 -71 25 -81 27 -18 1 30 1 71 0 91 -1 20 5 61 13 91 22 73 19 183 -5 222
-11 17 -19 39 -19 49 0 10 -4 16 -10 12 -10 -6 -8 146 4 185 4 14 12 55 18 93
8 51 14 67 27 67 13 0 13 2 2 9 -8 5 -9 11 -3 15 5 3 12 29 16 57 4 28 14 58
22 67 11 11 14 25 9 49 -6 32 -4 34 15 28 24 -8 24 12 0 32 -10 9 -11 12 -3
13 9 0 8 14 -6 53 -11 28 -22 77 -26 108 -3 31 -13 65 -20 75 -8 11 -15 31
-15 45 0 18 -13 39 -42 65 -24 21 -51 51 -61 68 -10 16 -37 51 -60 78 -23 26
-40 49 -37 50 3 2 -5 18 -18 36 -28 38 -24 39 79 16 39 -9 73 -14 76 -11 7 8
-95 37 -130 37 -16 0 -40 9 -54 20 -14 11 -35 20 -47 21 -21 0 -21 1 -1 9 11
5 36 9 55 10 32 2 30 3 -15 11 -27 4 -52 4 -55 0 -7 -13 -114 -24 -140 -16
-35 11 -5 25 54 25 61 0 57 7 -8 14 -27 3 -52 8 -55 12 -5 5 12 19 34 27 26
10 -5 15 -40 6 -22 -5 -51 -12 -65 -15 -14 -3 -40 -14 -59 -25 -26 -16 -36
-17 -48 -8 -24 20 -43 66 -43 103 0 19 -4 37 -9 40 -5 3 -9 -21 -8 -54 0 -33
-2 -63 -6 -66 -13 -13 -69 33 -118 98 -28 37 -53 68 -55 68 -2 0 -8 -19 -15
-42z m44 -53 c13 -38 13 -45 2 -45 -18 0 -23 9 -31 60 -9 56 8 47 29 -15z m17
24 c0 -6 -4 -7 -10 -4 -5 3 -10 11 -10 16 0 6 5 7 10 4 6 -3 10 -11 10 -16z
m165 -109 c3 -5 1 -10 -4 -10 -6 0 -11 5 -11 10 0 6 2 10 4 10 3 0 8 -4 11
-10z m-747 -58 c2 -7 -2 -10 -12 -6 -9 3 -16 11 -16 16 0 13 23 5 28 -10z m82
8 c0 -5 -4 -10 -10 -10 -5 0 -10 5 -10 10 0 6 5 10 10 10 6 0 10 -4 10 -10z
m743 -17 c-7 -2 -19 -2 -25 0 -7 3 -2 5 12 5 14 0 19 -2 13 -5z m-56 -9 c-3
-3 -12 -4 -19 -1 -8 3 -5 6 6 6 11 1 17 -2 13 -5z m348 -4 c7 -12 -2 -12 -30
0 -19 8 -19 9 2 9 12 1 25 -3 28 -9z m-1242 -77 c-7 -2 -19 -2 -25 0 -7 3 -2
5 12 5 14 0 19 -2 13 -5z m-438 -243 c-3 -5 -10 -10 -16 -10 -5 0 -9 5 -9 10
0 6 7 10 16 10 8 0 12 -4 9 -10z m15 -125 c-7 -8 -17 -15 -22 -15 -6 0 -5 7 2
15 7 8 17 15 22 15 6 0 5 -7 -2 -15z m-63 -231 c-3 -3 -12 -4 -19 -1 -8 3 -5
6 6 6 11 1 17 -2 13 -5z m1473 -169 c0 -12 -19 -12 -23 0 -4 9 -1 12 9 8 7 -3
14 -7 14 -8z m-900 -540 c-7 -8 -18 -15 -26 -15 -7 0 -17 -8 -23 -17 -11 -21
-24 -13 -16 9 6 15 66 49 74 42 2 -2 -2 -10 -9 -19z m1186 -400 c-3 -8 -1 -15
4 -15 6 0 10 5 10 10 0 6 9 10 20 10 11 0 20 -4 20 -10 0 -5 -7 -10 -15 -10
-8 0 -15 -6 -15 -14 0 -20 27 -39 49 -33 18 4 18 2 7 -31 -15 -44 -42 -64 -56
-42 -9 13 -10 13 -11 0 0 -10 -2 -11 -6 -2 -2 6 -13 12 -24 12 -10 0 -19 5
-19 10 0 6 7 10 15 10 8 0 15 5 15 10 0 6 -6 10 -14 10 -25 0 -30 55 -9 93 8
14 35 7 29 -8z m-812 -126 c11 -11 25 -19 32 -19 6 0 15 -8 18 -17 4 -10 4
-14 0 -10 -4 4 -14 1 -22 -6 -12 -9 -16 -9 -19 1 -7 19 -41 14 -48 -8 -3 -11
-11 -20 -16 -20 -5 0 -9 -7 -9 -15 0 -8 -4 -15 -10 -15 -13 0 -13 40 0 60 9
13 11 13 20 0 6 -10 10 -11 10 -2 0 24 -1 27 -15 24 -8 -1 -12 6 -11 22 1 30
40 32 70 5z m921 1 c3 -5 1 -10 -4 -10 -6 0 -11 5 -11 10 0 6 2 10 4 10 3 0 8
-4 11 -10z m-715 -70 c0 -5 -2 -10 -4 -10 -3 0 -8 5 -11 10 -3 6 -1 10 4 10 6
0 11 -4 11 -10z m695 -10 c-3 -5 -10 -10 -16 -10 -5 0 -9 5 -9 10 0 6 7 10 16
10 8 0 12 -4 9 -10z m-28 -26 c-3 -3 -12 -4 -19 -1 -8 3 -5 6 6 6 11 1 17 -2
13 -5z m-713 -150 c10 -25 2 -28 -77 -31 -40 -1 -93 -5 -119 -7 -37 -4 -48 -2
-48 9 0 9 10 13 28 13 15 -1 45 5 65 11 20 7 52 11 71 10 19 -2 38 0 42 4 13
12 32 8 38 -9z m-52 -94 l17 -35 7 32 6 33 64 -4 c71 -4 89 -14 99 -53 7 -29
14 -26 20 7 8 41 47 53 64 21 6 -10 13 -36 17 -58 7 -48 0 -51 -114 -59 -57
-4 -74 -2 -78 10 -3 8 -13 12 -25 9 -10 -3 -30 2 -43 11 -15 10 -27 12 -31 6
-9 -15 -45 -12 -51 5 -4 8 -10 13 -14 10 -14 -8 -40 37 -40 67 0 30 9 35 28
16 9 -9 13 -7 18 6 10 26 37 15 56 -24z m342 -12 c-3 -4 0 -8 5 -8 17 0 13
-46 -5 -61 -13 -10 -17 -10 -25 2 -18 28 -8 76 16 76 8 0 12 -4 9 -9z m73 -18
c1 -17 -2 -30 -8 -30 -6 0 -7 5 -4 10 3 6 1 10 -4 10 -15 0 -14 27 2 33 6 3
12 6 12 6 0 1 1 -13 2 -29z m-61 -605 c-1 -23 -8 -29 -28 -26 -5 0 -8 -8 -8
-18 0 -25 -26 -34 -50 -18 -21 12 -27 37 -10 37 6 0 10 -7 10 -15 0 -8 3 -15
8 -15 13 0 32 39 26 55 -3 8 -1 15 5 15 6 0 11 -8 12 -17 0 -14 2 -13 9 5 12
30 28 28 26 -3z m164 -25 c0 -17 -60 -71 -96 -86 -39 -17 -59 -10 -32 10 10 7
16 16 13 20 -3 3 1 2 7 -4 18 -15 38 -12 32 5 -4 10 0 15 15 15 11 0 28 11 37
25 17 27 24 31 24 15z m-150 -47 c0 -26 -1 -26 -17 -10 -16 16 -16 19 -3 27
20 13 20 13 20 -17z m-23 -59 c-3 -3 -12 -4 -19 -1 -8 3 -5 6 6 6 11 1 17 -2
13 -5z m298 -454 c-10 -11 -23 -20 -28 -20 -6 0 1 10 14 23 29 28 40 25 14 -3z
m345 -71 c0 -14 -40 -16 -51 -2 -11 12 -8 13 14 8 23 -6 26 -5 21 11 -5 16 -4
16 5 4 6 -8 11 -18 11 -21z m-50 -29 c8 -5 11 -12 7 -16 -4 -4 -15 0 -24 9
-18 18 -8 23 17 7z"/>
<path d="M2336 3875 c-3 -9 -6 -22 -5 -28 0 -7 5 -1 10 12 5 13 8 26 5 28 -2
2 -6 -3 -10 -12z"/>
<path d="M2315 3770 c-3 -5 -1 -10 4 -10 6 0 11 5 11 10 0 6 -2 10 -4 10 -3 0
-8 -4 -11 -10z"/>
<path d="M2428 3753 c6 -2 18 -2 25 0 6 3 1 5 -13 5 -14 0 -19 -2 -12 -5z"/>
<path d="M974 3463 c3 -4 -4 -13 -16 -20 -13 -7 -17 -12 -10 -13 19 0 52 19
52 30 0 6 -7 10 -17 10 -9 0 -13 -3 -9 -7z"/>
<path d="M756 3271 c-4 -7 -5 -15 -2 -18 9 -9 19 4 14 18 -4 11 -6 11 -12 0z"/>
<path d="M815 2659 c-10 -15 -14 -62 -4 -52 10 10 23 63 16 63 -3 0 -9 -5 -12
-11z"/>
<path d="M872 2627 c-6 -12 -10 -33 -9 -47 2 -14 -2 -28 -8 -32 -6 -5 -6 -8 3
-8 7 0 12 -14 12 -36 0 -23 4 -33 11 -28 8 4 9 0 4 -15 -5 -16 -2 -21 10 -21
13 0 16 5 10 23 -4 12 -9 38 -12 57 -3 19 -9 37 -14 40 -5 3 -4 23 2 44 12 44
7 56 -9 23z"/>
<path d="M1090 1420 c0 -5 5 -10 10 -10 6 0 10 5 10 10 0 6 -4 10 -10 10 -5 0
-10 -4 -10 -10z"/>
<path d="M1620 1170 c0 -5 5 -10 11 -10 5 0 7 5 4 10 -3 6 -8 10 -11 10 -2 0
-4 -4 -4 -10z"/>
<path d="M1275 1150 c3 -5 10 -10 16 -10 5 0 9 5 9 10 0 6 -7 10 -16 10 -8 0
-12 -4 -9 -10z"/>
<path d="M1312 1132 c4 -19 29 -23 35 -6 2 6 -6 14 -17 17 -16 4 -20 1 -18
-11z"/>
<path d="M1407 1010 c-37 -7 -62 -20 -38 -20 9 0 11 -8 8 -21 -4 -14 4 -29 25
-50 17 -16 33 -29 34 -29 8 0 3 9 -13 25 -13 13 -14 18 -3 25 7 4 10 12 6 18
-3 6 -2 13 4 17 13 8 33 45 23 44 -4 -1 -25 -5 -46 -9z"/>
<path d="M1540 970 c-10 -6 -11 -10 -2 -10 6 0 12 -9 12 -21 0 -11 5 -17 10
-14 12 7 14 55 3 55 -5 0 -15 -5 -23 -10z"/>
<path d="M1605 955 c-11 -9 -14 -14 -7 -10 7 4 12 0 12 -9 0 -16 15 -22 23 -8
3 4 2 15 -2 25 -6 16 -8 16 -26 2z"/>
<path d="M1450 949 c0 -5 5 -7 10 -4 6 3 10 8 10 11 0 2 -4 4 -10 4 -5 0 -10
-5 -10 -11z"/>
<path d="M2804 932 c4 -7 2 -12 -3 -12 -6 0 -11 -4 -11 -10 0 -5 6 -10 13 -10
7 0 23 -9 34 -19 12 -11 23 -17 26 -14 8 7 -18 33 -32 33 -6 0 -11 6 -11 14 0
8 -5 18 -12 22 -7 4 -8 3 -4 -4z"/>
<path d="M1480 915 c0 -8 -4 -15 -9 -15 -5 0 -11 -9 -14 -20 -4 -15 6 -28 43
-55 26 -19 52 -35 58 -35 5 0 12 -6 15 -13 2 -7 25 -22 49 -34 25 -13 50 -34
56 -48 12 -27 32 -34 32 -11 0 20 -60 75 -76 69 -9 -3 -14 1 -14 12 0 11 5 15
15 12 22 -9 26 7 9 32 -9 13 -22 20 -30 17 -20 -8 -39 41 -23 60 19 23 6 25
-47 9 -27 -8 -51 -15 -53 -15 -2 0 0 11 3 25 4 14 2 25 -4 25 -5 0 -10 -7 -10
-15z"/>
<path d="M2600 907 c0 -12 5 -29 11 -37 8 -12 9 -9 5 12 -5 20 -2 27 11 30 15
3 14 5 -4 10 -19 5 -23 2 -23 -15z"/>
<path d="M2790 875 c0 -8 4 -15 10 -15 5 0 7 7 4 15 -4 8 -8 15 -10 15 -2 0
-4 -7 -4 -15z"/>
<path d="M1080 870 c0 -5 5 -10 11 -10 5 0 7 5 4 10 -3 6 -8 10 -11 10 -2 0
-4 -4 -4 -10z"/>
<path d="M2880 865 c-1 -5 -2 -13 -1 -17 0 -5 -9 -8 -21 -9 l-23 0 23 -10 c23
-9 23 -9 5 -33 -16 -22 -19 -23 -30 -10 -12 17 -53 11 -53 -8 0 -5 -7 -8 -15
-4 -9 3 -15 0 -15 -8 0 -20 27 -14 45 10 12 15 14 15 9 2 -8 -24 6 -45 17 -27
8 12 11 12 18 -1 7 -10 6 -17 -2 -23 -7 -5 -3 -6 11 -2 22 6 28 -1 14 -21 -8
-12 -52 -14 -52 -1 0 4 -4 5 -10 2 -5 -3 -10 -13 -10 -22 0 -9 3 -14 6 -10 8
8 33 -16 27 -25 -2 -4 3 -5 11 -2 9 3 16 9 16 13 0 9 46 8 56 -1 4 -5 0 -8 -9
-8 -9 0 -17 -5 -17 -11 0 -8 -4 -8 -14 0 -11 9 -15 6 -19 -16 -3 -16 0 -31 6
-35 9 -6 8 -10 -2 -17 -9 -6 -10 -11 -2 -15 6 -4 11 -4 11 -1 0 4 7 0 15 -9 8
-8 12 -22 9 -31 -6 -14 -8 -13 -18 6 -6 12 -15 22 -21 22 -5 0 -14 6 -20 14
-8 11 -12 10 -23 -7 -10 -17 -10 -20 3 -20 9 0 18 -7 22 -16 5 -13 8 -13 15
-2 7 9 9 7 5 -8 -4 -17 1 -20 29 -20 29 1 34 4 34 26 -1 14 -7 34 -15 44 -18
24 -20 42 -2 29 6 -6 24 -13 40 -17 21 -5 27 -3 27 9 0 9 -4 14 -9 11 -5 -4
-7 3 -4 14 3 11 0 20 -6 20 -6 0 -11 -5 -11 -10 0 -7 -8 -6 -22 2 -23 12 -23
12 7 18 26 5 30 9 26 35 -1 17 -7 38 -12 48 -6 11 -6 17 1 17 5 0 10 5 10 10
0 6 -10 10 -22 10 -18 0 -20 2 -8 10 9 5 19 5 26 -1 8 -7 14 -6 19 1 8 13 72
13 80 0 3 -5 12 -10 18 -10 7 1 1 10 -12 21 -13 11 -30 18 -38 15 -7 -3 -13
-1 -13 5 0 13 -65 6 -83 -9 -6 -5 -20 -7 -30 -3 -16 6 -14 10 13 36 30 28 43
58 16 36 -11 -10 -15 -8 -19 6 -3 10 -6 14 -7 8z m30 -160 c0 -8 -4 -15 -10
-15 -5 0 -10 7 -10 15 0 8 5 15 10 15 6 0 10 -7 10 -15z"/>
<path d="M2711 844 c0 -11 3 -14 6 -6 3 7 2 16 -1 19 -3 4 -6 -2 -5 -13z"/>
<path d="M2657 833 c-4 -3 -7 -14 -7 -24 0 -9 -6 -20 -12 -22 -7 -3 -1 -6 14
-6 15 -1 31 -7 35 -15 6 -10 13 -5 26 21 9 19 13 32 7 28 -5 -3 -20 1 -33 10
-13 8 -27 12 -30 8z"/>
<path d="M2952 825 c-11 -12 -10 -15 3 -15 8 0 15 7 15 15 0 18 -2 18 -18 0z"/>
<path d="M800 779 c0 -5 5 -7 10 -4 6 3 10 8 10 11 0 2 -4 4 -10 4 -5 0 -10
-5 -10 -11z"/>
<path d="M832 778 c2 -6 10 -14 16 -16 7 -2 10 2 6 12 -7 18 -28 22 -22 4z"/>
<path d="M765 770 c-3 -5 1 -10 10 -10 9 0 13 5 10 10 -3 6 -8 10 -10 10 -2 0
-7 -4 -10 -10z"/>
<path d="M1910 759 c0 -5 5 -7 10 -4 6 3 10 8 10 11 0 2 -4 4 -10 4 -5 0 -10
-5 -10 -11z"/>
<path d="M3106 753 c6 -4 14 -15 17 -23 5 -11 6 -9 4 4 -1 11 -9 21 -17 23
-10 3 -11 2 -4 -4z"/>
<path d="M3200 740 c0 -5 5 -10 10 -10 6 0 10 5 10 10 0 6 -4 10 -10 10 -5 0
-10 -4 -10 -10z"/>
<path d="M3240 720 c8 -5 20 -10 25 -10 6 0 3 5 -5 10 -8 5 -19 10 -25 10 -5
0 -3 -5 5 -10z"/>
<path d="M1945 710 c3 -5 8 -10 11 -10 2 0 4 5 4 10 0 6 -5 10 -11 10 -5 0 -7
-4 -4 -10z"/>
<path d="M730 699 c0 -5 5 -7 10 -4 6 3 10 8 10 11 0 2 -4 4 -10 4 -5 0 -10
-5 -10 -11z"/>
<path d="M2670 705 c0 -5 5 -17 10 -25 5 -8 10 -10 10 -5 0 6 -5 17 -10 25 -5
8 -10 11 -10 5z"/>
<path d="M3325 700 c3 -5 13 -10 21 -10 8 0 14 -4 14 -10 0 -5 5 -10 10 -10
19 0 10 17 -15 28 -32 15 -38 15 -30 2z"/>
<path d="M1720 691 c0 -6 5 -13 10 -16 6 -4 8 -11 5 -16 -3 -5 1 -6 9 -3 9 3
17 -3 21 -16 7 -22 26 -23 33 -2 2 7 -3 12 -11 12 -9 0 -24 11 -35 25 -21 26
-32 32 -32 16z"/>
<path d="M3163 683 c-7 -3 -13 -18 -13 -34 0 -22 3 -27 17 -22 11 4 14 3 9 -5
-4 -7 -14 -12 -22 -12 -8 0 -14 -4 -14 -10 0 -14 23 -13 38 2 17 17 15 38 -3
38 -13 0 -14 4 -5 21 13 23 11 28 -7 22z"/>
<path d="M3300 680 c-8 -5 -11 -12 -7 -16 4 -4 13 -2 19 4 15 15 7 24 -12 12z"/>
<path d="M2711 661 c-8 -14 -8 -22 1 -27 6 -4 8 -3 4 4 -3 6 3 12 16 14 19 3
20 4 5 16 -13 11 -17 10 -26 -7z"/>
<path d="M675 651 c5 -15 2 -21 -9 -21 -9 0 -16 -7 -16 -15 0 -8 5 -15 11 -15
5 0 7 5 4 10 -3 6 3 10 13 10 28 0 35 27 11 41 -19 9 -20 8 -14 -10z"/>
<path d="M731 661 c0 -7 -17 -29 -37 -48 -47 -44 -40 -51 10 -9 26 23 37 39
33 52 -2 10 -5 13 -6 5z"/>
<path d="M3390 666 c0 -2 7 -7 16 -10 8 -3 12 -2 9 4 -6 10 -25 14 -25 6z"/>
<path d="M3215 650 c3 -5 1 -10 -4 -10 -6 0 -11 -4 -11 -10 0 -5 7 -10 15 -10
8 0 15 -6 16 -12 0 -7 4 -4 8 7 5 12 3 24 -5 32 -15 15 -28 17 -19 3z"/>
<path d="M2970 640 c0 -5 5 -10 10 -10 6 0 10 5 10 10 0 6 -4 10 -10 10 -5 0
-10 -4 -10 -10z"/>
<path d="M3120 640 c-8 -5 -12 -12 -9 -15 4 -3 12 1 19 10 14 17 11 19 -10 5z"/>
<path d="M2740 630 c-9 -6 -10 -10 -3 -10 6 0 15 5 18 10 8 12 4 12 -15 0z"/>
<path d="M3007 622 c-15 -16 -15 -21 -2 -38 13 -18 14 -18 8 5 -4 14 -2 22 3
18 6 -3 11 3 11 14 2 24 0 24 -20 1z"/>
<path d="M2788 623 c7 -3 16 -2 19 1 4 3 -2 6 -13 5 -11 0 -14 -3 -6 -6z"/>
<path d="M3251 604 c0 -11 3 -14 6 -6 3 7 2 16 -1 19 -3 4 -6 -2 -5 -13z"/>
<path d="M1828 603 c6 -2 18 -2 25 0 6 3 1 5 -13 5 -14 0 -19 -2 -12 -5z"/>
<path d="M2756 594 c-4 -10 -1 -14 6 -12 15 5 23 28 10 28 -5 0 -13 -7 -16
-16z"/>
<path d="M3273 590 c-1 -11 2 -20 8 -20 5 0 9 9 9 20 0 11 -4 20 -8 20 -4 0
-8 -9 -9 -20z"/>
<path d="M565 590 c-3 -5 -1 -10 4 -10 6 0 11 5 11 10 0 6 -2 10 -4 10 -3 0
-8 -4 -11 -10z"/>
<path d="M3093 578 c-26 -12 -30 -28 -9 -28 8 0 17 -6 19 -12 3 -8 6 -6 6 5 1
9 -5 17 -11 17 -7 1 -2 7 12 15 29 17 16 19 -17 3z"/>
<path d="M3197 583 c-12 -12 -7 -22 8 -17 18 7 19 -3 2 -36 -8 -15 -10 -35 -6
-50 8 -27 9 -24 15 30 2 19 8 38 13 43 6 6 4 15 -4 23 -15 16 -19 17 -28 7z"/>
<path d="M3343 574 c-5 -13 -7 -13 -14 -2 -5 8 -9 9 -9 2 0 -6 7 -17 15 -24
10 -9 15 -9 15 -1 0 6 9 11 20 11 11 0 20 5 20 11 0 6 -9 8 -21 4 -15 -5 -19
-4 -15 4 4 6 5 11 1 11 -3 0 -8 -7 -12 -16z"/>
<path d="M2715 570 c-3 -5 -2 -10 4 -10 5 0 13 5 16 10 3 6 2 10 -4 10 -5 0
-13 -4 -16 -10z"/>
<path d="M910 560 c0 -5 4 -10 9 -10 6 0 13 5 16 10 3 6 -1 10 -9 10 -9 0 -16
-4 -16 -10z"/>
<path d="M2749 560 c-1 -8 -3 -25 -4 -38 -2 -17 1 -20 11 -11 7 6 17 9 21 6 4
-3 8 5 8 18 0 13 -4 21 -9 18 -4 -3 -12 1 -17 8 -7 12 -9 11 -10 -1z"/>
<path d="M863 553 c-21 -8 -15 -30 14 -48 24 -16 26 -16 20 0 -4 9 -7 25 -7
36 0 19 -5 21 -27 12z"/>
<path d="M2924 535 c0 -14 5 -24 9 -22 5 1 8 6 8 10 -1 4 -1 14 -1 22 0 8 -4
15 -9 15 -5 0 -8 -11 -7 -25z"/>
<path d="M3264 549 c-3 -6 -2 -15 3 -20 5 -5 9 -1 9 11 0 23 -2 24 -12 9z"/>
<path d="M3230 540 c0 -5 5 -10 10 -10 6 0 10 5 10 10 0 6 -4 10 -10 10 -5 0
-10 -4 -10 -10z"/>
<path d="M3298 543 c7 -3 16 -2 19 1 4 3 -2 6 -13 5 -11 0 -14 -3 -6 -6z"/>
<path d="M3360 546 c0 -2 7 -6 15 -10 8 -3 15 -1 15 4 0 6 -7 10 -15 10 -8 0
-15 -2 -15 -4z"/>
<path d="M590 530 c-8 -5 -10 -10 -5 -10 6 0 17 5 25 10 8 5 11 10 5 10 -5 0
-17 -5 -25 -10z"/>
<path d="M900 530 c0 -5 5 -10 11 -10 5 0 7 5 4 10 -3 6 -8 10 -11 10 -2 0 -4
-4 -4 -10z"/>
<path d="M666 497 c3 -10 9 -15 12 -12 3 3 0 11 -7 18 -10 9 -11 8 -5 -6z"/>
<path d="M2647 503 c-18 -4 -17 -6 3 -20 12 -8 24 -12 28 -8 3 3 0 10 -7 14
-11 7 -11 10 0 14 17 7 1 7 -24 0z"/>
<path d="M2774 483 c3 -6 0 -14 -7 -17 -9 -3 -9 -5 0 -5 6 -1 15 4 18 9 3 6
11 10 17 10 7 0 7 -4 0 -12 -6 -7 -10 -15 -11 -18 0 -3 -3 -13 -6 -22 -4 -10
-4 -25 -1 -34 6 -15 8 -15 26 1 10 9 16 24 14 33 -4 13 -2 13 10 -2 11 -14 13
-22 5 -27 -8 -5 -8 -8 0 -13 6 -4 11 -13 11 -19 0 -7 -4 -6 -10 3 -6 9 -10 11
-10 3 0 -8 -7 -10 -17 -6 -16 6 -16 5 -5 -10 8 -9 20 -13 29 -10 11 4 14 2 9
-5 -4 -7 -3 -12 3 -12 14 0 23 18 11 22 -6 2 -4 14 4 30 12 23 12 29 -1 47
-12 18 -12 21 0 21 8 0 18 7 21 16 5 13 1 15 -18 10 -15 -4 -30 -1 -39 8 -17
18 -60 17 -53 -1z"/>
<path d="M3036 493 c5 -5 12 -12 16 -18 4 -6 8 -2 8 8 0 9 -7 17 -17 17 -9 0
-12 -3 -7 -7z"/>
<path d="M3117 493 c-4 -7 -15 -9 -23 -6 -14 5 -14 3 -2 -16 10 -17 14 -18 16
-6 2 8 8 13 13 9 5 -3 6 -10 3 -16 -4 -6 1 -6 14 1 25 13 43 14 22 1 -8 -5
-11 -12 -7 -17 10 -9 28 18 20 30 -3 5 -14 7 -24 4 -11 -3 -19 1 -21 12 -3 11
-6 13 -11 4z"/>
<path d="M3237 480 c-6 -22 0 -25 22 -11 7 5 10 14 7 20 -11 17 -23 13 -29 -9z"/>
<path d="M3340 484 c0 -8 5 -12 10 -9 6 4 8 11 5 16 -9 14 -15 11 -15 -7z"/>
<path d="M647 473 c-4 -3 -7 -11 -7 -17 0 -6 5 -5 12 2 6 6 9 14 7 17 -3 3 -9
2 -12 -2z"/>
<path d="M2621 461 c-1 -20 -3 -21 -16 -11 -11 9 -15 9 -15 1 0 -18 24 -23 55
-11 23 9 26 13 15 20 -9 6 -17 5 -21 -2 -4 -7 -9 -4 -12 8 -4 15 -5 14 -6 -5z"/>
<path d="M2953 467 c-3 -5 2 -16 11 -25 10 -11 16 -12 16 -4 0 7 -4 12 -10 12
-5 0 -10 4 -10 10 0 5 7 7 15 4 8 -4 15 -2 15 3 0 12 -29 13 -37 0z"/>
<path d="M2908 463 c6 -2 18 -2 25 0 6 3 1 5 -13 5 -14 0 -19 -2 -12 -5z"/>
<path d="M396 448 c3 -5 10 -6 15 -3 13 9 11 12 -6 12 -8 0 -12 -4 -9 -9z"/>
<path d="M573 445 c-3 -9 -3 -18 -1 -21 3 -3 8 4 11 16 6 23 -1 27 -10 5z"/>
<path d="M2895 440 c-3 -5 -1 -10 4 -10 6 0 11 5 11 10 0 6 -2 10 -4 10 -3 0
-8 -4 -11 -10z"/>
<path d="M3181 428 c0 -16 -6 -28 -13 -28 -6 0 -9 -3 -5 -6 3 -3 16 1 29 10
12 9 17 16 11 16 -6 0 -14 8 -16 18 -3 10 -5 6 -6 -10z"/>
<path d="M3230 442 c0 -5 7 -17 16 -28 8 -10 13 -14 10 -7 -4 6 0 14 6 16 7 3
4 6 -7 6 -17 1 -17 3 -5 11 13 8 12 10 -2 10 -10 0 -18 -4 -18 -8z"/>
<path d="M3426 432 c-4 -13 -6 -24 -4 -25 1 -1 12 -7 24 -14 16 -9 21 -8 21 3
0 7 -4 11 -9 8 -13 -8 -9 20 5 36 10 12 9 12 -5 2 -13 -10 -17 -10 -20 0 -3 8
-8 3 -12 -10z"/>
<path d="M3026 425 c-3 -9 1 -15 9 -15 8 0 15 -5 15 -11 0 -5 -4 -7 -10 -4 -5
3 -10 -3 -10 -15 l0 -21 22 21 22 20 -21 20 c-18 16 -22 17 -27 5z"/>
<path d="M3301 424 c0 -11 3 -14 6 -6 3 7 2 16 -1 19 -3 4 -6 -2 -5 -13z"/>
<path d="M960 430 c-1 -3 -3 -17 -4 -32 -1 -25 0 -26 16 -11 19 17 24 28 9 18
-5 -3 -12 3 -14 12 -3 10 -6 16 -7 13z"/>
<path d="M1016 414 c-8 -20 1 -34 21 -34 10 0 13 6 9 16 -3 9 -6 20 -6 25 0
15 -17 10 -24 -7z"/>
<path d="M3585 420 c-3 -5 -1 -10 4 -10 6 0 11 5 11 10 0 6 -2 10 -4 10 -3 0
-8 -4 -11 -10z"/>
<path d="M553 406 c3 -8 3 -17 -1 -20 -3 -4 -6 -16 -7 -27 -1 -13 3 -18 12
-14 8 3 17 5 20 5 3 0 0 7 -7 15 -9 11 -10 18 -1 29 9 11 8 15 -5 20 -11 4
-15 2 -11 -8z"/>
<path d="M590 408 c0 -9 5 -20 10 -23 13 -8 13 5 0 25 -8 13 -10 13 -10 -2z"/>
<path d="M863 408 c15 -10 54 -10 60 0 3 4 -12 7 -34 7 -22 1 -33 -2 -26 -7z"/>
<path d="M2651 404 c6 -7 17 -10 25 -7 23 8 16 21 -11 21 -20 0 -23 -3 -14
-14z"/>
<path d="M2917 409 c7 -7 15 -10 18 -7 3 3 -2 9 -12 12 -14 6 -15 5 -6 -5z"/>
<path d="M455 400 c3 -5 11 -10 16 -10 6 0 7 5 4 10 -3 6 -11 10 -16 10 -6 0
-7 -4 -4 -10z"/>
<path d="M827 403 c-4 -3 -7 -11 -7 -17 0 -6 5 -5 12 2 6 6 9 14 7 17 -3 3 -9
2 -12 -2z"/>
<path d="M2615 400 c-3 -5 -1 -10 4 -10 6 0 11 5 11 10 0 6 -2 10 -4 10 -3 0
-8 -4 -11 -10z"/>
<path d="M3080 400 c0 -5 5 -10 11 -10 5 0 7 5 4 10 -3 6 -8 10 -11 10 -2 0
-4 -4 -4 -10z"/>
<path d="M2688 393 c-10 -2 -18 -9 -18 -15 0 -5 -7 -8 -15 -4 -8 3 -15 0 -15
-7 0 -7 13 -12 30 -12 20 0 29 4 25 13 -2 6 2 12 10 12 8 0 15 5 15 10 0 10
-3 11 -32 3z"/>
<path d="M3195 390 c-3 -5 -2 -10 4 -10 5 0 13 5 16 10 3 6 2 10 -4 10 -5 0
-13 -4 -16 -10z"/>
<path d="M3263 393 c-7 -2 -13 -11 -13 -19 0 -8 -6 -11 -15 -8 -9 4 -15 0 -15
-8 0 -28 13 -27 35 2 12 16 25 27 28 23 4 -3 7 -1 7 5 0 13 -7 14 -27 5z"/>
<path d="M3300 391 c0 -6 4 -11 9 -11 5 0 12 -8 14 -17 4 -15 5 -15 6 -2 0 9
-6 22 -14 29 -10 9 -15 9 -15 1z"/>
<path d="M496 381 c-3 -5 0 -11 8 -14 15 -6 26 1 26 15 0 11 -27 10 -34 -1z"/>
<path d="M710 376 c0 -8 5 -18 10 -21 6 -3 10 3 10 14 0 12 -4 21 -10 21 -5 0
-10 -6 -10 -14z"/>
<path d="M885 380 c3 -5 11 -10 16 -10 6 0 7 5 4 10 -3 6 -11 10 -16 10 -6 0
-7 -4 -4 -10z"/>
<path d="M2930 380 c0 -5 5 -10 10 -10 6 0 10 5 10 10 0 6 -4 10 -10 10 -5 0
-10 -4 -10 -10z"/>
<path d="M3345 380 c3 -5 12 -7 20 -3 21 7 19 13 -6 13 -11 0 -18 -4 -14 -10z"/>
<path d="M995 370 c3 -5 8 -10 11 -10 2 0 4 5 4 10 0 6 -5 10 -11 10 -5 0 -7
-4 -4 -10z"/>
<path d="M3080 370 c0 -6 -4 -8 -10 -5 -5 3 -10 2 -10 -4 0 -17 14 -20 27 -5
8 8 9 15 3 19 -6 3 -10 1 -10 -5z"/>
<path d="M3600 358 c0 -33 14 -50 33 -42 9 3 17 10 17 15 0 13 -17 11 -24 -3
-4 -7 -4 2 -1 20 3 24 1 32 -10 32 -9 0 -15 -9 -15 -22z"/>
<path d="M1455 359 c-4 -6 -5 -12 -2 -15 2 -3 7 2 10 11 7 17 1 20 -8 4z"/>
<path d="M670 350 c0 -5 5 -10 11 -10 5 0 7 5 4 10 -3 6 -8 10 -11 10 -2 0 -4
-4 -4 -10z"/>
<path d="M1510 350 c0 -5 5 -10 11 -10 5 0 7 5 4 10 -3 6 -8 10 -11 10 -2 0
-4 -4 -4 -10z"/>
<path d="M3194 335 c2 -16 7 -38 11 -47 4 -10 3 -18 -2 -18 -5 0 -10 -7 -10
-15 0 -8 4 -12 8 -9 4 2 10 -2 12 -8 3 -8 6 -6 6 5 1 9 9 17 19 18 14 0 14 2
-3 9 -11 5 -16 9 -11 9 5 1 2 9 -7 19 -10 10 -14 21 -11 25 3 3 1 14 -5 24 -9
15 -10 13 -7 -12z"/>
<path d="M3430 350 c0 -5 5 -10 11 -10 5 0 7 5 4 10 -3 6 -8 10 -11 10 -2 0
-4 -4 -4 -10z"/>
<path d="M297 336 c-4 -10 -1 -13 9 -9 7 3 14 9 14 14 0 14 -17 10 -23 -5z"/>
<path d="M386 335 c-3 -8 -1 -15 4 -15 13 0 22 18 11 24 -5 3 -11 -1 -15 -9z"/>
<path d="M890 340 c0 -5 5 -10 10 -10 6 0 10 5 10 10 0 6 -4 10 -10 10 -5 0
-10 -4 -10 -10z"/>
<path d="M3130 335 c0 -8 -4 -15 -10 -15 -5 0 -10 -4 -10 -10 0 -5 11 -10 24
-10 14 0 28 5 31 10 3 6 1 10 -4 10 -6 0 -11 7 -11 15 0 8 -4 15 -10 15 -5 0
-10 -7 -10 -15z"/>
<path d="M3261 334 c0 -11 3 -14 6 -6 3 7 2 16 -1 19 -3 4 -6 -2 -5 -13z"/>
<path d="M422 320 c0 -14 2 -19 5 -12 2 6 2 18 0 25 -3 6 -5 1 -5 -13z"/>
<path d="M1047 321 c-3 -12 -2 -23 3 -26 12 -7 22 27 12 37 -6 6 -12 1 -15
-11z"/>
<path d="M3297 329 c7 -7 15 -10 18 -7 3 3 -2 9 -12 12 -14 6 -15 5 -6 -5z"/>
<path d="M3531 324 c0 -11 3 -14 6 -6 3 7 2 16 -1 19 -3 4 -6 -2 -5 -13z"/>
<path d="M660 315 c0 -8 2 -15 4 -15 2 0 12 -3 21 -7 15 -5 16 -3 6 15 -13 25
-31 29 -31 7z"/>
<path d="M720 322 c0 -7 -9 -21 -20 -32 -16 -16 -17 -20 -5 -20 15 0 40 48 30
58 -3 3 -5 0 -5 -6z"/>
<path d="M3020 314 c0 -8 5 -12 10 -9 6 3 10 10 10 16 0 5 -4 9 -10 9 -5 0
-10 -7 -10 -16z"/>
<path d="M3428 323 c7 -3 16 -2 19 1 4 3 -2 6 -13 5 -11 0 -14 -3 -6 -6z"/>
<path d="M328 313 c7 -3 16 -2 19 1 4 3 -2 6 -13 5 -11 0 -14 -3 -6 -6z"/>
<path d="M1094 300 c0 -13 4 -16 10 -10 7 7 7 13 0 20 -6 6 -10 3 -10 -10z"/>
<path d="M2658 313 c7 -3 16 -2 19 1 4 3 -2 6 -13 5 -11 0 -14 -3 -6 -6z"/>
<path d="M2853 313 c-15 -5 -17 -23 -4 -23 5 0 11 7 15 15 3 8 4 15 3 14 -1 0
-8 -3 -14 -6z"/>
<path d="M2924 302 c1 -11 -6 -17 -20 -16 -14 0 -20 -4 -17 -13 3 -7 -1 -13
-8 -13 -16 0 -3 -13 16 -16 8 -1 11 4 8 12 -4 10 3 14 23 15 16 0 24 3 17 5
-7 3 -10 11 -7 19 3 7 1 16 -4 19 -5 3 -9 -2 -8 -12z"/>
<path d="M2995 310 c-4 -6 -2 -17 4 -23 15 -15 25 -2 13 19 -7 12 -11 13 -17
4z"/>
<path d="M3232 303 c2 -9 8 -18 15 -20 7 -3 9 3 6 16 -6 25 -26 28 -21 4z"/>
<path d="M1536 301 c-4 -7 -5 -15 -2 -18 9 -9 19 4 14 18 -4 11 -6 11 -12 0z"/>
<path d="M2588 303 c7 -3 16 -2 19 1 4 3 -2 6 -13 5 -11 0 -14 -3 -6 -6z"/>
<path d="M3442 303 c-9 -4 -6 -11 9 -24 27 -24 28 -24 22 1 -6 24 -13 29 -31
23z"/>
<path d="M3510 303 c0 -4 5 -15 10 -23 8 -13 10 -13 10 2 0 9 -4 20 -10 23 -5
3 -10 3 -10 -2z"/>
<path d="M640 285 c0 -8 4 -15 10 -15 5 0 7 7 4 15 -4 8 -8 15 -10 15 -2 0 -4
-7 -4 -15z"/>
<path d="M2620 278 c0 -12 3 -17 8 -12 4 5 11 12 15 15 5 3 2 9 -7 12 -12 5
-16 0 -16 -15z"/>
<path d="M3172 280 c0 -14 2 -19 5 -12 2 6 2 18 0 25 -3 6 -5 1 -5 -13z"/>
<path d="M740 280 c0 -5 5 -10 10 -10 6 0 10 5 10 10 0 6 -4 10 -10 10 -5 0
-10 -4 -10 -10z"/>
<path d="M1690 275 c0 -8 4 -15 10 -15 5 0 7 7 4 15 -4 8 -8 15 -10 15 -2 0
-4 -7 -4 -15z"/>
<path d="M3026 281 c-4 -7 -5 -15 -2 -18 9 -9 19 4 14 18 -4 11 -6 11 -12 0z"/>
<path d="M207 273 c-10 -3 -16 -10 -14 -16 6 -19 22 -18 35 3 12 20 11 21 -21
13z"/>
<path d="M420 268 c0 -9 -8 -22 -17 -27 -14 -8 -15 -10 -3 -11 29 0 43 16 31
36 -9 17 -10 17 -11 2z"/>
<path d="M530 269 c0 -5 5 -7 10 -4 6 3 10 8 10 11 0 2 -4 4 -10 4 -5 0 -10
-5 -10 -11z"/>
<path d="M967 273 c-10 -9 -9 -23 2 -23 5 0 11 7 15 15 5 15 -5 20 -17 8z"/>
<path d="M1050 265 c7 -8 9 -19 5 -25 -3 -5 -2 -10 4 -10 5 0 18 -3 28 -6 17
-5 17 -5 -1 10 -10 8 -15 19 -12 24 3 5 -3 12 -15 15 -16 4 -18 3 -9 -8z"/>
<path d="M3375 270 c3 -5 8 -10 11 -10 2 0 4 5 4 10 0 6 -5 10 -11 10 -5 0 -7
-4 -4 -10z"/>
<path d="M3610 265 c0 -8 4 -15 8 -15 5 0 9 7 9 15 0 8 -4 15 -9 15 -4 0 -8
-7 -8 -15z"/>
<path d="M503 256 c21 -16 22 -30 2 -22 -8 3 -15 2 -15 -3 0 -9 33 -21 58 -21
6 0 12 5 12 11 0 6 -9 8 -21 4 -15 -5 -19 -4 -15 4 4 6 14 11 22 11 8 0 14 4
14 9 0 5 -8 7 -19 4 -10 -3 -22 0 -25 6 -4 6 -13 11 -19 11 -7 0 -4 -7 6 -14z"/>
<path d="M1108 263 c7 -3 16 -2 19 1 4 3 -2 6 -13 5 -11 0 -14 -3 -6 -6z"/>
<path d="M3280 260 c0 -5 8 -6 17 -3 12 5 15 2 10 -10 -3 -9 -2 -17 2 -17 16
0 20 28 5 34 -23 9 -34 7 -34 -4z"/>
<path d="M3431 254 c0 -11 3 -14 6 -6 3 7 2 16 -1 19 -3 4 -6 -2 -5 -13z"/>
<path d="M693 240 c-1 -11 2 -20 8 -20 5 0 9 9 9 20 0 11 -4 20 -8 20 -4 0 -8
-9 -9 -20z"/>
<path d="M735 250 c3 -5 8 -10 11 -10 2 0 4 5 4 10 0 6 -5 10 -11 10 -5 0 -7
-4 -4 -10z"/>
<path d="M3101 251 c-7 -5 -9 -11 -5 -14 5 -3 15 1 22 9 14 16 5 18 -17 5z"/>
<path d="M90 239 c0 -5 5 -7 10 -4 6 3 10 8 10 11 0 2 -4 4 -10 4 -5 0 -10 -5
-10 -11z"/>
<path d="M245 240 c3 -5 11 -10 16 -10 6 0 7 5 4 10 -3 6 -11 10 -16 10 -6 0
-7 -4 -4 -10z"/>
<path d="M458 243 c7 -3 16 -2 19 1 4 3 -2 6 -13 5 -11 0 -14 -3 -6 -6z"/>
<path d="M1505 240 c-3 -6 1 -7 9 -4 18 7 21 14 7 14 -6 0 -13 -4 -16 -10z"/>
<path d="M3390 239 c0 -5 5 -7 10 -4 6 3 10 8 10 11 0 2 -4 4 -10 4 -5 0 -10
-5 -10 -11z"/>
<path d="M910 231 c0 -5 5 -13 10 -16 6 -3 10 -2 10 4 0 5 -4 13 -10 16 -5 3
-10 2 -10 -4z"/>
<path d="M3132 228 c-15 -15 -16 -38 -1 -38 5 0 7 5 4 10 -4 6 -1 17 5 25 15
18 9 20 -8 3z"/>
<path d="M3631 219 c-17 -16 -20 -24 -11 -29 7 -4 9 -13 5 -20 -4 -7 4 -5 17
4 14 9 28 13 31 9 11 -11 7 10 -6 35 l-13 22 -23 -21z m25 -26 c-10 -10 -19 5
-10 18 6 11 8 11 12 0 2 -7 1 -15 -2 -18z"/>
<path d="M110 220 c0 -5 5 -10 11 -10 5 0 7 5 4 10 -3 6 -8 10 -11 10 -2 0 -4
-4 -4 -10z"/>
<path d="M426 214 c-4 -10 -1 -14 6 -12 15 5 23 28 10 28 -5 0 -13 -7 -16 -16z"/>
<path d="M640 218 c0 -9 5 -20 10 -23 13 -8 13 5 0 25 -8 13 -10 13 -10 -2z"/>
<path d="M965 220 c3 -5 8 -10 11 -10 2 0 4 5 4 10 0 6 -5 10 -11 10 -5 0 -7
-4 -4 -10z"/>
<path d="M1160 208 c-12 -22 -12 -22 6 -6 10 10 15 20 12 24 -4 3 -12 -5 -18
-18z"/>
<path d="M3006 214 c-4 -9 -4 -19 -1 -22 2 -3 7 3 11 12 4 9 4 19 1 22 -2 3
-7 -3 -11 -12z"/>
<path d="M3173 222 c-28 -4 -30 -18 -4 -25 12 -3 22 1 26 11 7 18 6 19 -22 14z"/>
<path d="M790 210 c0 -5 5 -10 10 -10 6 0 10 5 10 10 0 6 -4 10 -10 10 -5 0
-10 -4 -10 -10z"/>
<path d="M3230 213 c0 -4 5 -15 10 -23 8 -13 10 -13 10 2 0 9 -4 20 -10 23 -5
3 -10 3 -10 -2z"/>
<path d="M142 198 c2 -6 10 -13 16 -14 7 -1 8 0 2 3 -5 2 -8 9 -4 14 3 5 0 9
-6 9 -7 0 -10 -5 -8 -12z"/>
<path d="M605 200 c-3 -5 -1 -10 4 -10 6 0 11 5 11 10 0 6 -2 10 -4 10 -3 0
-8 -4 -11 -10z"/>
<path d="M670 188 c-12 -22 -12 -22 6 -6 10 10 15 20 12 24 -4 3 -12 -5 -18
-18z"/>
<path d="M1088 203 c7 -3 16 -2 19 1 4 3 -2 6 -13 5 -11 0 -14 -3 -6 -6z"/>
<path d="M302 187 c-9 -11 -10 -17 -2 -22 15 -9 23 -1 18 21 -3 15 -4 16 -16
1z"/>
<path d="M560 184 c0 -8 5 -12 10 -9 6 4 8 11 5 16 -9 14 -15 11 -15 -7z"/>
<path d="M740 189 c0 -5 12 -9 26 -9 19 0 25 -4 20 -15 -3 -8 -1 -15 4 -15 6
0 10 7 10 15 0 8 5 15 10 15 6 0 10 -7 10 -15 0 -8 4 -15 9 -15 16 0 -1 40
-18 41 -9 1 -28 3 -43 5 -16 1 -28 -1 -28 -7z"/>
<path d="M1050 191 c0 -5 5 -13 10 -16 6 -3 10 -2 10 4 0 5 -4 13 -10 16 -5 3
-10 2 -10 -4z"/>
<path d="M2590 190 c0 -5 5 -10 10 -10 6 0 10 5 10 10 0 6 -4 10 -10 10 -5 0
-10 -4 -10 -10z"/>
<path d="M2620 180 c0 -19 3 -21 12 -12 9 9 9 15 0 24 -9 9 -12 7 -12 -12z"/>
<path d="M698 179 c-4 -9 1 -20 13 -27 12 -8 19 -8 19 -2 0 5 -4 10 -9 10 -5
0 -11 8 -13 18 -3 15 -4 15 -10 1z"/>
<path d="M1100 180 c0 -5 4 -10 9 -10 6 0 13 5 16 10 3 6 -1 10 -9 10 -9 0
-16 -4 -16 -10z"/>
<path d="M3010 180 c-9 -6 -10 -10 -3 -10 6 0 15 5 18 10 8 12 4 12 -15 0z"/>
<path d="M3070 180 c0 -5 -9 -10 -19 -10 -21 0 -37 -17 -26 -28 3 -3 10 0 14
7 6 9 18 12 37 7 19 -4 24 -3 15 3 -7 5 -10 14 -7 20 4 6 2 11 -3 11 -6 0 -11
-4 -11 -10z"/>
<path d="M3410 181 c0 -5 9 -7 20 -4 11 3 20 7 20 9 0 2 -9 4 -20 4 -11 0 -20
-4 -20 -9z"/>
<path d="M354 172 c3 -5 0 -13 -6 -15 -9 -4 -10 -6 -1 -6 17 -1 25 16 12 25
-7 4 -9 3 -5 -4z"/>
<path d="M3108 154 c3 -15 8 -22 14 -16 9 9 1 42 -12 42 -4 0 -5 -12 -2 -26z"/>
<path d="M155 160 c-3 -5 -1 -10 4 -10 6 0 11 5 11 10 0 6 -2 10 -4 10 -3 0
-8 -4 -11 -10z"/>
<path d="M410 160 c0 -5 5 -10 10 -10 6 0 10 5 10 10 0 6 -4 10 -10 10 -5 0
-10 -4 -10 -10z"/>
<path d="M1810 162 c0 -6 5 -12 11 -14 14 -5 -26 -88 -41 -88 -6 0 -9 -3 -8
-8 1 -4 -3 -17 -10 -29 l-13 -23 86 0 c55 0 85 4 85 11 0 6 -9 13 -21 16 -16
5 -19 11 -14 30 4 19 3 23 -7 17 -9 -5 -8 -2 2 10 22 27 21 45 -3 60 -31 20
-67 29 -67 18z"/>
<path d="M2924 159 c-2 -4 5 -9 15 -12 11 -3 22 1 25 8 5 14 -31 17 -40 4z"/>
<path d="M3257 148 c4 -19 10 -25 21 -21 11 5 13 3 7 -7 -6 -9 -4 -11 4 -5 10
6 10 10 0 19 -7 6 -18 18 -25 26 -10 12 -11 10 -7 -12z"/>
<path d="M3656 154 c-9 -23 -2 -28 13 -10 7 8 8 17 3 20 -6 3 -13 -1 -16 -10z"/>
<path d="M871 144 c0 -11 3 -14 6 -6 3 7 2 16 -1 19 -3 4 -6 -2 -5 -13z"/>
<path d="M1025 150 c3 -5 8 -10 11 -10 2 0 4 5 4 10 0 6 -5 10 -11 10 -5 0 -7
-4 -4 -10z"/>
<path d="M1115 150 c-3 -5 -1 -10 4 -10 6 0 11 5 11 10 0 6 -2 10 -4 10 -3 0
-8 -4 -11 -10z"/>
<path d="M1150 145 c0 -8 5 -15 10 -15 6 0 10 7 10 15 0 8 -4 15 -10 15 -5 0
-10 -7 -10 -15z"/>
<path d="M3151 153 c1 -5 0 -10 -1 -13 -8 -21 -6 -37 5 -37 7 0 11 6 8 14 -3
8 2 13 12 13 15 0 15 2 1 15 -16 16 -27 19 -25 8z"/>
<path d="M3539 143 c-13 -16 -12 -17 4 -4 16 13 21 21 13 21 -2 0 -10 -8 -17
-17z"/>
<path d="M205 140 c-3 -5 -2 -10 4 -10 5 0 13 5 16 10 3 6 2 10 -4 10 -5 0
-13 -4 -16 -10z"/>
<path d="M480 120 c0 -16 5 -30 11 -30 7 0 9 9 5 24 -4 15 -1 26 7 29 7 3 5 6
-5 6 -13 1 -18 -7 -18 -29z"/>
<path d="M910 140 c0 -5 5 -10 10 -10 6 0 10 5 10 10 0 6 -4 10 -10 10 -5 0
-10 -4 -10 -10z"/>
<path d="M166 132 c-2 -4 -1 -14 5 -22 7 -12 9 -10 9 8 0 23 -5 28 -14 14z"/>
<path d="M303 128 c3 -18 24 -38 39 -38 8 1 7 6 -6 15 -10 7 -15 18 -11 24 3
6 -1 11 -9 11 -9 0 -15 -6 -13 -12z"/>
<path d="M840 132 c0 -12 19 -26 26 -19 2 2 -2 10 -11 17 -9 8 -15 8 -15 2z"/>
<path d="M2928 110 c2 -17 8 -33 13 -36 10 -6 11 11 3 44 -9 33 -21 27 -16 -8z"/>
<path d="M3063 118 c-2 -18 0 -20 7 -8 12 18 13 30 2 30 -4 0 -9 -10 -9 -22z"/>
<path d="M524 115 c-3 -8 -3 -19 1 -25 9 -15 28 -12 22 4 -3 7 0 19 6 25 8 8
6 11 -6 11 -10 0 -20 -7 -23 -15z"/>
<path d="M1176 113 c-6 -14 -5 -15 5 -6 7 7 10 15 7 18 -3 3 -9 -2 -12 -12z"/>
<path d="M2965 120 c3 -5 8 -10 11 -10 2 0 4 5 4 10 0 6 -5 10 -11 10 -5 0 -7
-4 -4 -10z"/>
<path d="M141 105 c-1 -14 8 -24 29 -32 17 -6 30 -7 30 -2 0 5 -11 11 -24 15
-14 3 -27 13 -29 22 -4 13 -5 12 -6 -3z"/>
<path d="M395 110 c-3 -5 -1 -10 4 -10 6 0 11 5 11 10 0 6 -2 10 -4 10 -3 0
-8 -4 -11 -10z"/>
<path d="M680 111 c0 -6 5 -13 10 -16 6 -3 10 1 10 9 0 9 -4 16 -10 16 -5 0
-10 -4 -10 -9z"/>
<path d="M820 116 c0 -2 8 -10 18 -17 15 -13 16 -12 3 4 -13 16 -21 21 -21 13z"/>
<path d="M898 113 c7 -3 16 -2 19 1 4 3 -2 6 -13 5 -11 0 -14 -3 -6 -6z"/>
<path d="M1972 104 c-7 -8 -8 -14 -3 -14 10 0 25 19 20 25 -2 1 -10 -3 -17
-11z"/>
<path d="M3646 105 c5 -11 2 -14 -10 -9 -9 3 -16 1 -16 -5 0 -6 9 -11 20 -11
21 0 28 24 10 35 -6 3 -7 -1 -4 -10z"/>
<path d="M200 100 c0 -5 5 -10 11 -10 5 0 7 5 4 10 -3 6 -8 10 -11 10 -2 0 -4
-4 -4 -10z"/>
<path d="M1010 101 c0 -7 -4 -9 -10 -6 -5 3 -10 -1 -10 -9 0 -9 4 -16 9 -16
11 0 24 31 16 38 -3 3 -5 0 -5 -7z"/>
<path d="M2870 98 c0 -9 5 -20 10 -23 13 -8 13 5 0 25 -8 13 -10 13 -10 -2z"/>
<path d="M3680 100 c0 -5 5 -10 11 -10 5 0 7 5 4 10 -3 6 -8 10 -11 10 -2 0
-4 -4 -4 -10z"/>
<path d="M933 83 c12 -14 25 -19 35 -15 15 5 14 7 -3 10 -11 2 -27 9 -35 15
-8 7 -7 2 3 -10z"/>
<path d="M3080 91 c0 -23 21 -62 30 -56 5 3 10 11 10 16 0 6 -6 7 -12 3 -8 -5
-7 0 2 11 14 17 13 18 -4 12 -14 -6 -17 -4 -12 8 3 8 1 15 -4 15 -6 0 -10 -4
-10 -9z"/>
<path d="M3390 90 c0 -6 7 -10 15 -10 8 0 15 2 15 4 0 2 -7 6 -15 10 -8 3 -15
1 -15 -4z"/>
<path d="M3440 90 c-12 -8 -9 -10 13 -10 16 0 26 4 22 10 -8 12 -16 12 -35 0z"/>
<path d="M10 80 c0 -5 5 -10 10 -10 6 0 10 5 10 10 0 6 -4 10 -10 10 -5 0 -10
-4 -10 -10z"/>
<path d="M410 79 c0 -5 5 -7 10 -4 6 3 10 8 10 11 0 2 -4 4 -10 4 -5 0 -10 -5
-10 -11z"/>
<path d="M701 71 c-13 -23 -14 -31 -3 -31 13 0 32 39 22 45 -5 3 -14 -3 -19
-14z"/>
<path d="M888 83 c7 -3 16 -2 19 1 4 3 -2 6 -13 5 -11 0 -14 -3 -6 -6z"/>
<path d="M1415 80 c3 -5 8 -10 11 -10 2 0 4 5 4 10 0 6 -5 10 -11 10 -5 0 -7
-4 -4 -10z"/>
<path d="M3210 76 c0 -9 5 -16 10 -16 6 0 10 4 10 9 0 6 -4 13 -10 16 -5 3
-10 -1 -10 -9z"/>
<path d="M235 70 c3 -5 8 -10 11 -10 2 0 4 5 4 10 0 6 -5 10 -11 10 -5 0 -7
-4 -4 -10z"/>
<path d="M325 70 c4 -6 11 -8 16 -5 14 9 11 15 -7 15 -8 0 -12 -5 -9 -10z"/>
<path d="M793 73 c-7 -2 -13 -12 -13 -21 1 -15 2 -16 13 -1 7 9 19 18 27 22
13 5 13 5 0 5 -8 0 -21 -2 -27 -5z"/>
<path d="M736 54 c-8 -22 -8 -24 6 -24 6 0 8 3 5 7 -4 3 1 12 11 19 15 12 15
13 1 14 -9 0 -20 -7 -23 -16z"/>
<path d="M850 60 l-25 -8 28 -1 c15 -1 27 4 27 9 0 6 -1 10 -2 9 -2 -1 -14 -5
-28 -9z"/>
<path d="M905 60 c-3 -5 -2 -10 4 -10 5 0 13 5 16 10 3 6 2 10 -4 10 -5 0 -13
-4 -16 -10z"/>
<path d="M1630 55 c0 -8 4 -15 10 -15 5 0 7 7 4 15 -4 8 -8 15 -10 15 -2 0 -4
-7 -4 -15z"/>
<path d="M2007 49 c4 -13 8 -18 11 -10 2 7 -1 18 -6 23 -8 8 -9 4 -5 -13z"/>
<path d="M2956 55 c-3 -8 -1 -15 3 -15 5 0 11 7 15 15 3 8 1 15 -3 15 -5 0
-11 -7 -15 -15z"/>
<path d="M3000 60 c-13 -8 -13 -10 2 -10 9 0 20 5 23 10 8 13 -5 13 -25 0z"/>
<path d="M3410 61 c0 -5 7 -12 16 -15 14 -5 15 -4 4 9 -14 17 -20 19 -20 6z"/>
<path d="M970 52 c0 -12 19 -26 26 -19 2 2 -2 10 -11 17 -9 8 -15 8 -15 2z"/>
<path d="M1266 45 c-3 -8 -1 -15 3 -15 5 0 11 7 15 15 3 8 1 15 -3 15 -5 0
-11 -7 -15 -15z"/>
<path d="M1390 45 c0 -8 2 -15 4 -15 2 0 6 7 10 15 3 8 1 15 -4 15 -6 0 -10
-7 -10 -15z"/>
<path d="M2852 53 c-10 -4 -10 -8 -1 -19 16 -20 29 -17 29 6 0 20 -5 23 -28
13z"/>
<path d="M3243 44 c-7 -7 -13 -15 -13 -17 0 -7 49 -1 57 7 5 5 1 7 -9 3 -10
-3 -18 0 -20 8 -2 11 -5 11 -15 -1z"/>
<path d="M3666 34 c-4 -14 -5 -28 -3 -31 3 -2 8 8 11 23 4 14 5 28 3 31 -3 2
-8 -8 -11 -23z"/>
<path d="M662 26 c1 -14 7 -22 14 -19 13 5 7 43 -7 43 -5 0 -8 -11 -7 -24z"/>
<path d="M3036 35 c-3 -8 -1 -15 4 -15 6 0 10 7 10 15 0 8 -2 15 -4 15 -2 0
-6 -7 -10 -15z"/>
<path d="M3168 38 c-7 -7 -19 -13 -27 -13 -8 0 -16 -6 -18 -12 -9 -26 43 -14
55 12 13 28 10 31 -10 13z"/>
<path d="M255 30 c-3 -5 1 -10 10 -10 9 0 13 5 10 10 -3 6 -8 10 -10 10 -2 0
-7 -4 -10 -10z"/>
<path d="M600 34 c0 -2 9 -8 20 -14 11 -6 20 -7 20 -2 0 6 -9 12 -20 15 -11 3
-20 3 -20 1z"/>
<path d="M1090 22 c6 -13 14 -21 18 -18 3 4 -2 14 -12 24 -18 16 -18 16 -6 -6z"/>
<path d="M1136 23 c-6 -14 -5 -15 5 -6 7 7 10 15 7 18 -3 3 -9 -2 -12 -12z"/>
<path d="M125 20 c3 -5 8 -10 11 -10 2 0 4 5 4 10 0 6 -5 10 -11 10 -5 0 -7
-4 -4 -10z"/>
<path d="M178 23 c7 -3 16 -2 19 1 4 3 -2 6 -13 5 -11 0 -14 -3 -6 -6z"/>
<path d="M386 21 c-4 -7 -5 -15 -2 -18 9 -9 19 4 14 18 -4 11 -6 11 -12 0z"/>
<path d="M515 20 c-3 -5 -1 -10 4 -10 6 0 11 5 11 10 0 6 -2 10 -4 10 -3 0 -8
-4 -11 -10z"/>
<path d="M2970 15 c0 -6 6 -12 13 -12 8 0 14 6 14 12 0 6 -6 12 -14 12 -7 0
-13 -6 -13 -12z"/>
<path d="M475 10 c3 -5 8 -10 11 -10 2 0 4 5 4 10 0 6 -5 10 -11 10 -5 0 -7
-4 -4 -10z"/>
<path d="M725 10 c3 -5 13 -10 21 -10 8 0 12 4 9 10 -3 5 -13 10 -21 10 -8 0
-12 -4 -9 -10z"/>
<path d="M1475 10 c-3 -5 -1 -10 4 -10 6 0 11 5 11 10 0 6 -2 10 -4 10 -3 0
-8 -4 -11 -10z"/>
<path d="M2925 10 c-3 -5 -1 -10 4 -10 6 0 11 5 11 10 0 6 -2 10 -4 10 -3 0
-8 -4 -11 -10z"/>
</g>
</svg>
